<?xml version="1.0" encoding="UTF-8"?>
<svg id="Layer_1" xmlns="http://www.w3.org/2000/svg" version="1.1" viewBox="0 0 1920 1080">
  <defs>
    <style>
      .st0 { fill: #04453d; }
    </style>
  </defs>
  <path class="st0" d="M592.8,436.4c11.4-119.8-89.5-212.1-204.6-221.2-32.9-2.6-201.5-4.3-222.6,4.3-93.7,91.3-125.4,189.9-141.6,325.3-11.9,100-16.1,212.3-15.6,312.4h161.2v-482.9h276.1l-276.1,277.9c112.4,120.6,253.5,214.2,426,204.9v-158.2h-260.9l258.1-262.6Z"/>
  <path class="st0" d="M1004.2,497.2c-17.9-18.9-38.9-33.8-63.1-44.7-24.2-10.9-49.9-16.4-77.1-16.4h-14.4c-28.2,0-54.7,5.7-79.5,17.2-24.8,11.5-46.2,27.2-64.3,47.1-18.1,20-32.4,43.4-42.8,70.3-10.4,26.9-15.6,56.1-15.6,87.5s4.9,59.3,14.8,85.1c9.9,25.8,23.7,47.9,41.6,66.3,17.8,18.4,39.2,32.8,63.9,43.2,24.8,10.4,52.1,15.6,81.9,15.6h14.4c20.2,0,38.6-2.3,55.1-6.8,16.5-4.5,31.2-10.4,43.9-17.6,12.8-7.2,24-15.4,33.6-24.8,9.6-9.3,17.8-18.8,24.8-28.4,16-22.4,27.4-47.9,34.4-76.7l-134.2-1.6c-4.8,10.7-11.9,19.5-21.2,26.4-9.3,6.9-24.4,10.4-45.1,10.4s-22.8-2.4-31.6-7.2c-8.8-4.8-16-10.9-21.6-18.4-5.6-7.5-9.7-15.7-12.4-24.8-2.7-9.1-4-17.6-4-25.6h276.5v-28c0-28.8-5.2-55.9-15.6-81.5-10.4-25.6-24.5-47.8-42.4-66.7ZM785.7,633.4c1.6-13.3,4.9-24.5,10-33.6,5.1-9.1,11-16.4,18-22,6.9-5.6,14.5-9.7,22.8-12.4,8.3-2.7,15.8-4,22.8-4s16.1,1.3,24.4,4c8.3,2.7,15.7,6.8,22.4,12.4,6.7,5.6,12.1,13.1,16.4,22.4,4.3,9.3,6.4,20.4,6.4,33.2h-143Z"/>
  <polygon class="st0" points="1386.9 457.6 1298 840 1209 457.6 1048.7 457.6 1197.9 868.3 1398 868.3 1547.2 457.6 1386.9 457.6"/>
  <path class="st0" d="M1895.8,576.9c-10.6-23.8-24.9-44.4-43-62-18.1-17.6-39.3-31.5-63.6-41.9-24.3-10.3-50.4-15.5-78.3-15.5h-3.9c-27.4,0-53.2,5.2-77.5,15.5-24.3,10.3-45.5,24.3-63.6,41.9-18.1,17.6-32.4,38.2-43,62-10.6,23.8-15.9,49.3-15.9,76.7v18.6c0,26.9,5.3,52.2,15.9,75.9,10.6,23.8,24.9,44.6,43,62.4,18.1,17.8,39.3,31.9,63.6,42.2,24.3,10.3,50.1,15.5,77.5,15.5h3.9c27.9,0,54-5.2,78.3-15.5,24.3-10.3,45.5-24.4,63.6-42.2,18.1-17.8,32.4-38.6,43-62.4,10.6-23.8,15.9-49.1,15.9-75.9v-18.6c0-27.4-5.3-53-15.9-76.7ZM1783.8,670.7c0,10.9-1.9,21.1-5.8,30.6-3.9,9.6-9.2,17.8-15.9,24.8-6.7,7-14.6,12.5-23.6,16.7-9,4.1-18.7,6.2-29.1,6.2s-20-2.1-29.1-6.2c-9-4.1-17-9.7-24-16.7-7-7-12.4-15.2-16.3-24.8-3.9-9.6-5.8-19.8-5.8-30.6v-16.3c0-10.8,1.9-20.9,5.8-30.2,3.9-9.3,9.3-17.4,16.3-24.4,7-7,15-12.5,24-16.7,9-4.1,18.7-6.2,29.1-6.2s20,2.1,29.1,6.2c9,4.1,16.9,9.7,23.6,16.7,6.7,7,12,15.1,15.9,24.4,3.9,9.3,5.8,19.4,5.8,30.2v16.3Z"/>
</svg>
